<?xml version="1.0" encoding="utf-8"?>
<!-- Generator: Adobe Illustrator 24.0.2, SVG Export Plug-In . SVG Version: 6.00 Build 0)  -->
<svg version="1.1" id="レイヤー_1" xmlns="http://www.w3.org/2000/svg" xmlns:xlink="http://www.w3.org/1999/xlink" x="0px"
	 y="0px" viewBox="0 0 463.1 97.8" style="enable-background:new 0 0 463.1 97.8;" xml:space="preserve">
<style type="text/css">
	.st0{fill:#898989;}
	.st1{fill:url(#SVGID_1_);}
	.st2{fill:url(#SVGID_2_);}
</style>
<title>アセット 1</title>
<g id="レイヤー_2_1_">
	<g id="レイヤー_1-2">
		<g>
			<g>
				<path class="st0" d="M180.5,35.5h5.8c12.7,0,19.7,4,19.7,12.1c0,7.7-7,12.1-19.7,12.1h-5.8V35.5z M171.1,66.3h14.3
					c19.2,0,30.9-7.1,30.9-18.6c0-12.1-11.7-18.6-30.9-18.6h-14.3L171.1,66.3z"/>
				<path class="st0" d="M242,67.4l-23.7-38.4h10.4L243.3,53l14.7-23.9h10.4l-23.7,38.3H242z"/>
				<path class="st0" d="M287.5,27.7l23.7,38.4h-10.4l-14.7-23.9l-14.6,23.9h-10.4l23.7-38.4L287.5,27.7z"/>
				<path class="st0" d="M140,27.7l23.7,38.4h-10.4l-14.7-23.9l-14.6,23.9h-10.4l23.7-38.4L140,27.7z"/>
				<path class="st0" d="M328,66.3h-9.4V29.1h41.7v37.2h-9.4V35.5H328V66.3z"/>
				<path class="st0" d="M383.1,43.9h22.1v6.5h-22.1v9.4h22.4v6.5h-31.8V29.1h31.8v6.4h-22.4V43.9z"/>
				<path class="st0" d="M449.1,29.1h11.4l-16.2,17.2l18.8,20h-11.3l-13.2-14l-13.2,14h-11.3l18.8-20l-16.2-17.2h11.4l10.5,11.2
					L449.1,29.1z"/>
			</g>
			<g>
				
					<radialGradient id="SVGID_1_" cx="-897.0768" cy="969.2284" r="98.79" gradientTransform="matrix(0.38 0 0 -0.38 375.11 427.9)" gradientUnits="userSpaceOnUse">
					<stop  offset="0.14" style="stop-color:#00A7EA"/>
					<stop  offset="1" style="stop-color:#1D2088"/>
				</radialGradient>
				<polygon class="st1" points="52.5,53.8 57.7,68.2 78.7,68.2 69.7,46.5 				"/>
				
					<radialGradient id="SVGID_2_" cx="-897.0768" cy="969.2284" r="98.79" gradientTransform="matrix(0.38 0 0 -0.38 375.11 427.9)" gradientUnits="userSpaceOnUse">
					<stop  offset="0.14" style="stop-color:#00A7EA"/>
					<stop  offset="1" style="stop-color:#1D2088"/>
				</radialGradient>
				<path class="st2" d="M69.2,45.3l9.7-3.5l-10.3,2L50.5,0L32,43.9c-0.6,1.5-3,7.3-7.4,9.8L0,64.9l21.3-3.8
					c3.2-0.6,3.9,1.8,2.9,4.1l-13,32.6l22-36.3c1.6-2.5,3.9-4.5,6.7-5.5l11.8-4.3l0,0L69.2,45.3L69.2,45.3z M43.4,48.6
					c-3.2,0.6-2.7-0.6-2.2-1.5l5.1-10.3l3.8,10.6L43.4,48.6z"/>
			</g>
		</g>
	</g>
</g>
</svg>
