<svg width="420" height="90" viewBox="0 0 420 90" fill="none" xmlns="http://www.w3.org/2000/svg">
<g clip-path="url(#clip0_1246_815)">
<path d="M153.361 61.3654H137.189L135.15 65.9612H129.917L141.809 38.0436H149.079L160.768 66.0966H155.399L153.359 61.3632L153.361 61.3654ZM145.342 41.5423L139.296 56.9751H151.255L145.342 41.5423Z" fill="#333333"/>
<path d="M192.296 54.5055V60.9522C192.312 61.6407 192.189 62.3246 191.931 62.9612C191.674 63.5977 191.29 64.1756 190.802 64.6563C190.33 65.1575 189.76 65.557 189.13 65.8279C188.499 66.0987 187.819 66.2364 187.133 66.2342H168.038C167.284 66.2522 166.535 66.0965 165.853 65.7737C165.169 65.4532 164.569 64.9769 164.097 64.381C163.279 63.4058 162.843 62.1598 162.874 60.8822V59.099H167.767C167.754 59.3699 167.803 59.6408 167.908 59.8913C168.013 60.1419 168.174 60.3631 168.38 60.5391C168.735 60.6385 169.111 60.6385 169.467 60.5391H185.639C185.894 60.5391 186.144 60.4782 186.368 60.3586C186.594 60.2389 186.786 60.0651 186.929 59.8552C187.164 59.5392 187.285 59.1532 187.269 58.7582V55.3294C187.238 55.1105 187.133 54.9096 186.972 54.7584C186.811 54.6094 186.603 54.5191 186.386 54.5055H167.427C166.835 54.5191 166.246 54.4107 165.696 54.1873C165.146 53.9638 164.65 53.6275 164.232 53.2031C163.782 52.7855 163.429 52.2754 163.194 51.7066C162.959 51.1377 162.85 50.526 162.872 49.9098V43.3254C162.856 42.637 162.979 41.953 163.236 41.3165C163.494 40.68 163.878 40.1021 164.366 39.6213C164.838 39.1202 165.408 38.7207 166.038 38.4498C166.669 38.1789 167.349 38.0412 168.035 38.0435H187.13C187.817 38.039 188.494 38.1789 189.127 38.4498C189.758 38.7207 190.328 39.1202 190.8 39.6213C191.287 40.1021 191.672 40.68 191.929 41.3165C192.186 41.953 192.312 42.637 192.294 43.3254V45.1087H187.334C187.316 44.6414 187.126 44.1967 186.797 43.8672C186.468 43.5354 186.03 43.3435 185.567 43.3254H169.598C169.115 43.3435 168.657 43.5376 168.308 43.8739C168.149 44.0365 168.024 44.2283 167.941 44.4405C167.859 44.6527 167.823 44.8807 167.832 45.1087V49.0859C167.787 49.1943 167.765 49.3116 167.765 49.429C167.765 49.5464 167.787 49.6638 167.832 49.7721C168.031 49.8308 168.243 49.8308 168.442 49.7721H187.468C188.065 49.7631 188.658 49.8805 189.208 50.1175C189.758 50.3545 190.252 50.7044 190.661 51.1445C191.173 51.5395 191.587 52.0474 191.869 52.6298C192.153 53.2121 192.296 53.8555 192.292 54.5055H192.296Z" fill="#333333"/>
<path d="M201.947 66.0987H196.578V38.0458H201.947V66.0987Z" fill="#333333"/>
<path d="M227.692 61.3653H211.52L209.481 65.961H204.248L215.937 38.0435H223.343L235.032 66.0965H230.139L227.692 61.363V61.3653ZM219.606 41.5422L213.627 56.975H225.586L219.606 41.5422Z" fill="#333333"/>
<path d="M264.121 61.3653H247.609L245.57 65.961H240.337L252.093 38.0435H259.363L270.915 66.0965H265.751L264.121 61.363V61.3653ZM255.762 41.5422L249.783 56.975H261.675L255.762 41.5422Z" fill="#FDD209"/>
<path d="M300.69 43.3254V46.4811H295.73V44.7656C295.739 44.5489 295.701 44.3322 295.618 44.129C295.535 43.9281 295.412 43.7475 295.254 43.5986C295.104 43.4428 294.925 43.3187 294.726 43.2374C294.527 43.1539 294.314 43.1155 294.1 43.12H279.151C278.936 43.111 278.721 43.1494 278.52 43.2329C278.321 43.3164 278.142 43.4406 277.995 43.6008C277.827 43.7453 277.693 43.9236 277.599 44.1245C277.505 44.3254 277.456 44.5444 277.451 44.7656V59.4444C277.456 59.6656 277.505 59.8845 277.599 60.0854C277.693 60.2863 277.827 60.4647 277.995 60.6091C278.142 60.7694 278.321 60.8935 278.52 60.977C278.719 61.0606 278.934 61.0989 279.151 61.0899H294.1C294.314 61.0944 294.529 61.0538 294.726 60.9725C294.925 60.889 295.104 60.7671 295.254 60.6114C295.412 60.4624 295.535 60.2818 295.618 60.0809C295.701 59.88 295.739 59.6633 295.73 59.4444V57.7989H300.69V60.8845C300.699 61.5707 300.571 62.2546 300.316 62.8912C300.059 63.5277 299.679 64.1056 299.198 64.5909C298.717 65.0762 298.145 65.4599 297.514 65.7195C296.884 65.9791 296.208 66.1055 295.526 66.0965H277.724C277.042 66.1123 276.364 65.9881 275.734 65.7285C275.103 65.469 274.531 65.0807 274.054 64.5886C273.558 64.1124 273.162 63.5368 272.894 62.9002C272.625 62.2637 272.489 61.5775 272.491 60.8845V43.3254C272.525 41.935 273.088 40.6122 274.061 39.6303C275.036 38.6462 276.346 38.0796 277.722 38.0458H295.524C296.211 38.0412 296.888 38.1812 297.521 38.4521C298.152 38.7229 298.722 39.1225 299.194 39.6236C299.681 40.1044 300.066 40.6822 300.323 41.3188C300.58 41.9553 300.705 42.6392 300.688 43.3277L300.69 43.3254Z" fill="#FDD209"/>
<path d="M331.464 38.0435V43.12H320.319V66.0987H314.882V43.12H303.739V38.0435H331.464Z" fill="#FDD209"/>
<path d="M339.745 66.0987C339.063 66.1145 338.385 65.9904 337.754 65.7308C337.124 65.4712 336.551 65.083 336.075 64.5909C335.578 64.1146 335.183 63.539 334.914 62.9025C334.644 62.2659 334.507 61.5797 334.512 60.8868V38.0458H339.948V59.4466C339.908 59.6836 339.921 59.9297 339.986 60.1622C340.049 60.3947 340.163 60.6114 340.319 60.7942C340.476 60.977 340.668 61.1238 340.887 61.2231C341.104 61.3224 341.341 61.3721 341.58 61.3698H355.172C355.387 61.3743 355.599 61.3337 355.798 61.2524C355.997 61.1689 356.176 61.047 356.326 60.8913C356.619 60.573 356.791 60.1599 356.802 59.7243V38.0503H362.169V60.8913C362.178 61.5775 362.051 62.2592 361.794 62.898C361.539 63.5345 361.158 64.1123 360.675 64.5977C360.195 65.083 359.62 65.4667 358.992 65.7263C358.361 65.9859 357.683 66.1145 357.004 66.1032H339.745V66.0987Z" fill="#FDD209"/>
<path d="M387.517 61.3653H371.344L369.305 65.961H364.072L375.761 38.0435H383.1L394.789 66.0965H389.625L387.517 61.363V61.3653ZM379.634 41.5422L373.654 56.975H385.614L379.634 41.5422Z" fill="#FDD209"/>
<path d="M396.896 38.0435H402.263V61.3653H419.998V66.3718H396.894V38.0435H396.896Z" fill="#FDD209"/>
<path d="M2.1377 49.3049C3.93113 61.4465 10.4922 72.3896 20.3941 79.7482C30.2938 87.1068 42.7293 90.2828 54.9815 88.5831C54.1206 82.5607 52.0677 76.7642 48.9438 71.5296C45.8198 66.2951 41.685 61.7219 36.7766 58.072C31.8681 54.4243 26.282 51.772 20.3382 50.2664C14.3943 48.7631 8.209 48.4358 2.1377 49.3049Z" fill="#FDD209"/>
<path d="M75.9612 25.4775C74.5166 17.6516 70.7754 10.4578 65.2297 4.84629L60.3681 0L55.5089 4.95012C50.01 10.5819 46.3046 17.7712 44.8779 25.5813L47.6128 28.3667C53.6304 34.933 57.9754 42.9011 60.2697 51.5756C62.6647 42.8469 67.1125 34.845 73.2308 28.2629L75.9657 25.4775H75.9612Z" fill="#FDD209"/>
<path d="M20.163 18.0421C18.0072 27.3961 18.5037 37.1767 21.5919 46.2576C29.6445 48.0837 37.1402 51.8601 43.4352 57.2594C49.7301 62.6587 54.6408 69.523 57.7424 77.2653H58.2523C58.9679 45.0184 46.7134 24.3466 20.1607 18.0421H20.163Z" fill="#F9E27A"/>
<path d="M17.29 45.3005C15.8521 40.6596 15.1589 35.8359 15.235 30.9964C10.1297 30.4998 4.97523 30.8993 0.0197953 32.1792C-0.11885 36.5153 0.471509 40.847 1.76851 45.0048C6.92297 44.2622 12.1713 44.3615 17.2923 45.3005H17.29Z" fill="#FDD209"/>
<path d="M66.0527 88.556C72.057 89.425 78.173 89.0977 84.052 87.5944C89.931 86.0911 95.4544 83.4388 100.309 79.7911C105.164 76.1434 109.252 71.5725 112.342 66.338C115.43 61.1034 117.459 55.3114 118.313 49.2891C106.19 47.5623 93.8801 50.7247 84.081 58.0878C74.2842 65.4486 67.7992 76.4075 66.0527 88.556Z" fill="#FDD209"/>
<path d="M99.8661 46.2079C102.91 37.1361 103.404 27.3826 101.291 18.0399C74.7535 24.333 62.6534 44.9687 63.3645 77.263H63.8722C66.9469 69.5162 71.8286 62.6429 78.0989 57.2345C84.3692 51.8239 91.8382 48.0408 99.8661 46.2079Z" fill="#F9E27A"/>
<path d="M105.329 30.9896C105.289 35.8359 104.56 40.6506 103.16 45.3005C108.288 44.4405 113.529 44.4405 118.655 45.3005C120.019 41.066 120.614 36.6327 120.41 32.1995C115.5 30.9106 110.39 30.4998 105.327 30.9896H105.329Z" fill="#FDD209"/>
</g>
<defs>
<clipPath id="clip0_1246_815">
<rect width="420" height="89.0323" fill="white"/>
</clipPath>
</defs>
</svg>
