<svg width="1352" height="1859" viewBox="0 0 1352 1859" fill="none" xmlns="http://www.w3.org/2000/svg">
<path d="M856 1.09998C814.7 4.59998 764.1 13.3 720.5 24.5C549.8 68.3 404.2 161.5 296.8 295.9C189.5 430.1 132.1 591.9 132 760C132 934.2 194.1 1101.7 308.9 1236.5C391.8 1333.9 502.3 1413.3 621.8 1461.1C685 1486.5 750.3 1503.6 817 1512.4C859.6 1518.1 877.8 1519.4 910.5 1519.5C943.1 1519.5 950.8 1518.9 977.5 1514.3C985.8 1512.9 993.2 1511.7 994 1511.5C994.8 1511.4 996.2 1511 997 1510.6C997.8 1510.3 999.9 1509.9 1001.5 1509.7C1003.2 1509.5 1005.1 1509 1005.8 1508.6C1006.5 1508.2 1007.4 1508.1 1007.9 1508.5C1008.4 1508.8 1009.2 1508.5 1009.5 1507.9C1009.9 1507.4 1010.8 1507.1 1011.5 1507.4C1012.3 1507.7 1013 1507.5 1013.2 1507C1013.4 1506.5 1015.1 1505.8 1017 1505.6C1018.9 1505.3 1020.6 1505 1020.8 1504.9C1020.9 1504.8 1021.4 1504.7 1021.9 1504.6C1022.4 1504.6 1023.1 1504.2 1023.5 1503.8C1023.9 1503.4 1024.8 1503.4 1025.6 1503.7C1026.4 1504 1027 1503.7 1027 1503C1027 1502.3 1027.7 1502 1028.5 1502.4C1029.3 1502.7 1030 1502.5 1030 1501.9C1030 1501.3 1030.7 1501 1031.5 1501.4C1032.3 1501.7 1033 1501.5 1033 1500.9C1033 1500.3 1033.7 1500 1034.5 1500.4C1035.3 1500.7 1036 1500.5 1036 1500C1036 1499.5 1036.7 1499.3 1037.5 1499.6C1038.3 1500 1039 1499.7 1039 1499C1039 1498.3 1039.7 1498 1040.5 1498.4C1041.3 1498.7 1042 1498.5 1042 1498C1042 1497.5 1042.7 1497.3 1043.5 1497.6C1044.3 1498 1045 1497.7 1045 1497.1C1045 1496.5 1045.7 1496.3 1046.7 1496.7C1047.8 1497.1 1048.1 1497 1047.6 1496.2C1047.1 1495.4 1047.4 1495.2 1048.4 1495.6C1049.3 1495.9 1050 1495.7 1050 1495.1C1050 1494.5 1050.6 1494.3 1051.4 1494.6C1052.1 1494.9 1053.5 1494.4 1054.4 1493.5C1055.3 1492.6 1056.4 1492.2 1057 1492.5C1057.5 1492.8 1058 1492.6 1058 1492C1058 1491.4 1058.5 1491.2 1059 1491.5C1059.6 1491.8 1060 1491.7 1060 1491.1C1060 1490.5 1060.7 1490.4 1061.7 1490.7C1062.8 1491.1 1063.1 1491 1062.6 1490.2C1062.1 1489.4 1062.4 1489.2 1063.4 1489.6C1064.3 1489.9 1065 1489.7 1065 1489C1065 1488.4 1065.5 1488.2 1066 1488.5C1066.6 1488.8 1067 1488.7 1067 1488.1C1067 1487.5 1067.7 1487.4 1068.7 1487.7C1069.9 1488.2 1070.1 1488 1069.5 1487C1068.9 1486 1069.1 1485.8 1070.3 1486.3C1071.3 1486.6 1072 1486.5 1072 1485.9C1072 1485.3 1072.5 1485.2 1073 1485.5C1073.6 1485.8 1074 1485.6 1074 1485C1074 1484.4 1074.5 1484.2 1075 1484.5C1075.6 1484.8 1076 1484.6 1076 1484C1076 1483.4 1076.4 1483.1 1076.9 1483.5C1078.2 1484.2 1083.1 1481.9 1082.4 1480.9C1082.1 1480.4 1082.7 1480.3 1083.6 1480.7C1084.9 1481.2 1085.1 1481 1084.5 1480C1084 1479.2 1084.1 1478.9 1084.8 1479.4C1086.2 1480.3 1093.1 1476.9 1092.3 1475.7C1092 1475.1 1092.2 1475 1092.8 1475.3C1094.2 1476.2 1097.1 1475 1096.4 1473.9C1096.1 1473.4 1096.7 1473.3 1097.6 1473.7C1098.9 1474.2 1099.1 1474 1098.5 1473C1098 1472.2 1098.1 1471.9 1098.8 1472.4C1100.2 1473.2 1106.2 1469.6 1105.2 1468.5C1104.8 1468 1105.1 1468 1105.7 1468.4C1107.3 1469.3 1113.1 1466 1112.3 1464.7C1112 1464.1 1112.2 1464 1112.8 1464.4C1114.2 1465.3 1120.1 1462 1119.4 1460.8C1119.1 1460.3 1119.2 1460 1119.7 1460.1C1121.8 1460.5 1123.1 1459.9 1122.4 1458.8C1122 1458.2 1122.1 1458 1122.8 1458.4C1124.2 1459.2 1134.1 1453 1133.3 1451.7C1133 1451.1 1133.2 1451 1133.8 1451.4C1135.1 1452.2 1147.2 1444.1 1146.5 1442.9C1146.2 1442.6 1146.8 1442.3 1147.8 1442.4C1148.7 1442.4 1149.4 1441.9 1149.3 1441.3C1149.1 1440.6 1149.3 1440.1 1149.8 1440.1C1151.8 1440.4 1153 1439.9 1152.4 1438.8C1152 1438.2 1152.1 1438 1152.7 1438.3C1154.1 1439.2 1158.2 1436.1 1157.4 1434.8C1157 1434.1 1157.2 1434 1157.8 1434.4C1159.3 1435.3 1166.2 1430.1 1165.3 1428.7C1165 1428.2 1165.1 1428 1165.7 1428.3C1167.1 1429.2 1171.2 1426.1 1170.4 1424.8C1170 1424.2 1170.2 1424 1170.8 1424.4C1172.7 1425.5 1203.5 1398.6 1202.4 1396.8C1202 1396.2 1202.1 1396 1202.7 1396.3C1204.3 1397.3 1216.8 1384.8 1216.6 1382.5C1216.5 1381.4 1209.4 1373.6 1200 1364.5C1148.2 1314 1086.1 1253.9 1083.4 1251.7L1080.3 1249L1065.9 1263.4C1030.8 1298.3 991 1320.1 946.5 1328.6C934.3 1330.9 929.9 1331.3 912 1331.4C890.1 1331.4 878.7 1330.2 859.9 1325.5C794.8 1309.1 741.3 1264.4 714.8 1204C703.2 1177.6 697 1146.9 698.4 1122C698.7 1116.2 699.1 1109.4 699.2 1106.8C699.4 1104.3 699.8 1101.8 700.3 1101.4C700.7 1101 700.7 1099.1 700.4 1097.2C699.9 1094.5 700 1093.9 701 1094.5C702 1095.1 702.2 1094.6 701.7 1092.2C701.3 1090.2 701.5 1089 702.1 1089C702.8 1089 703 1088 702.6 1086.5C702.2 1084.9 702.4 1084 703.1 1084C703.7 1084 704 1083.1 703.7 1082C703.4 1080.9 703.6 1080 704.2 1080C704.8 1080 704.9 1078.9 704.6 1077.4C704.1 1075.7 704.3 1075.1 705 1075.5C706 1076.1 706.5 1073.5 706.2 1069.7C706.1 1068.6 706.4 1068.1 707.2 1068.6C708 1069.1 708.1 1068.6 707.8 1067.2C707.4 1065.8 707.6 1065.2 708.3 1065.7C708.9 1066.1 709.1 1065.5 708.8 1064.2C708.4 1062.8 708.6 1062.2 709.3 1062.7C709.9 1063.1 710.1 1062.5 709.8 1061.2C709.4 1059.8 709.6 1059.2 710.3 1059.7C710.9 1060.1 711.1 1059.5 710.8 1058.2C710.4 1057 710.5 1056.2 711 1056.5C712.1 1057.2 715.3 1048.3 714.4 1046.9C714 1046.2 714.1 1046 714.7 1046.3C715.9 1047 725.3 1028.2 724.4 1026.8C724 1026.2 724.1 1026 724.8 1026.3C726 1027.1 731.4 1018.4 730.5 1017C730.1 1016.4 730.3 1016.1 730.8 1016.2C732.3 1016.6 738.2 1008.1 737.4 1006.8C737 1006.2 737.1 1006 737.7 1006.3C738.3 1006.7 740.7 1004.4 743 1001.4C748.8 993.7 766.9 975.1 773.5 970C776.5 967.7 778.7 965.3 778.3 964.7C778 964.2 778.1 964 778.7 964.3C779.9 965.1 784.2 962.2 783.5 961C783.2 960.6 783.8 960.3 784.8 960.4C785.7 960.4 786.4 959.9 786.2 959.2C786.1 958.4 786.3 958.1 786.8 958.4C788 959.1 799.1 951.5 798.3 950.5C797.8 950.1 798.1 950 798.7 950.4C800.2 951.2 804.3 948.7 803.3 947.6C802.9 947.2 803.3 947.2 804.2 947.5C805.2 947.9 806.7 947.3 807.9 946.1C809.1 944.9 810.2 944 810.5 944.1C811.8 944.3 817 941.7 817 940.8C817 940.3 817.4 940.1 817.9 940.5C818.4 940.8 819.5 940.4 820.3 939.6C821.1 938.8 822 938.4 822.4 938.7C822.7 939.1 823 938.8 823 938.2C823 937.6 823.7 937.3 824.7 937.7C825.8 938.1 826.1 938 825.6 937.2C825.1 936.4 825.4 936.2 826.4 936.6C827.3 936.9 828 936.7 828 936C828 935.4 828.5 935.2 829 935.5C829.6 935.8 830 935.7 830 935.1C830 934.5 830.7 934.3 831.5 934.6C832.3 935 833 934.7 833 934C833 933.4 833.5 933.2 834 933.5C834.6 933.8 835 933.6 835 933C835 932.3 835.7 932 836.5 932.4C837.3 932.7 838 932.5 838 932C838 931.5 838.7 931.3 839.5 931.6C840.3 932 841 931.7 841 931C841 930.3 841.7 930 842.5 930.4C843.3 930.7 844 930.5 844 930C844 929.5 844.7 929.3 845.5 929.6C846.3 930 847 929.7 847 929C847 928.3 847.7 928 848.5 928.4C849.3 928.7 850 928.5 850 927.9C850 927.3 850.5 927.2 851 927.5C851.6 927.9 852.7 927.7 853.5 927C854.2 926.4 855.9 925.7 857.2 925.6C858.5 925.4 860.2 925 861 924.7C863.3 923.8 877.5 921.2 886.3 920C898.2 918.5 929.2 918.8 942.2 920.6C964.7 923.7 981.5 928.8 1001.5 938.5C1023 948.9 1037.4 959.2 1061.8 981.6C1073.2 992 1076.6 994.7 1078.3 994.3C1080.9 993.7 1117.1 958 1116.4 956.8C1116.1 956.3 1116.4 956.1 1117.2 956.2C1117.9 956.4 1118.4 955.9 1118.2 955.2C1118.1 954.6 1118.6 954.1 1119.2 954.2C1119.9 954.4 1120.4 953.9 1120.2 953.2C1120.1 952.4 1120.4 952.1 1120.9 952.4C1122.1 953.2 1212.1 864.5 1213.7 861C1214.8 858.5 1214.4 858 1203.2 847.8C1167 814.9 1133 791.3 1094.5 772.5C1029.9 740.9 964 727.4 891 731C873.9 731.8 865 731.8 858.5 731C782.7 721.9 715.1 693.8 657 647.4C641.4 634.9 615.1 609.2 602.6 594C551.1 531.9 520.6 449.7 521.1 374.3C521.3 347.3 522 332.2 523.3 330.3C523.7 329.6 523.8 327.5 523.4 325.5C523 323.1 523.1 322 524 322C524.9 322 525 320.9 524.6 318.5C524.1 316.1 524.3 315 525.1 315C525.8 315 526 314 525.7 312C525.3 310.1 525.5 309 526.1 309C526.8 309 527 308 526.6 306.5C526.2 304.9 526.4 304 527.1 304C527.8 304 528 302.9 527.7 301C527.3 299.1 527.5 298 528.1 298C528.8 298 529 297 528.6 295.4C528.1 293.6 528.3 293 529.1 293.6C529.9 294.1 530.1 293.5 529.8 291.6C529.5 290.2 529.7 289 530.2 289C530.7 289 530.8 288 530.5 286.9C530 285.3 530.1 285 531 285.5C532 286.1 532.2 285.6 531.8 283.6C531.5 282.2 531.7 281 532.3 281C532.8 281 533 280.1 532.7 279C532.4 277.8 532.6 277.2 533.2 277.6C533.9 278.1 534.1 277.4 533.8 275.7C533.5 274.1 533.7 273.3 534.3 273.7C534.9 274.1 535.1 273.5 534.8 272.2C534.4 271 534.5 270.2 535 270.5C536 271.1 537.2 265.1 536.3 263.7C535.9 263.1 536.2 263 537 263.5C538 264.1 538.2 263.8 537.8 262.2C537.4 260.8 537.6 260.2 538.3 260.7C538.9 261.1 539.1 260.5 538.8 259.2C538.4 257.8 538.6 257.2 539.3 257.7C539.9 258.1 540.1 257.5 539.8 256.2C539.4 254.8 539.6 254.2 540.3 254.7C540.9 255.1 541.1 254.5 540.8 253.2C540.4 251.8 540.6 251.2 541.3 251.7C541.9 252.1 542.1 251.5 541.8 250.2C541.4 249 541.6 248.2 542.1 248.6C542.9 249.1 543.4 247.4 543.3 244.3C543.2 243.6 543.6 243.3 544.1 243.6C544.9 244.1 545.4 242.4 545.3 239.3C545.2 238.6 545.7 238.3 546.3 238.7C546.9 239.1 547.1 238.5 546.8 237.2C546.4 236 546.5 235.2 547 235.5C548 236.1 551.1 228 550.3 226.6C550 226 550 225.8 550.5 226.2C550.9 226.6 554.3 220.7 558 213.2C580.7 167.6 615.3 123.7 652.2 93.6C654.8 91.5 656.7 89.3 656.3 88.7C656 88.2 656.1 88 656.7 88.3C658.1 89.2 662.2 86.1 661.4 84.8C661 84.2 661.1 84 661.7 84.3C662.9 85.1 669.6 80.2 669.2 78.9C669.1 78.3 669.3 78.1 669.8 78.4C670.8 79 680.6 72.2 680.3 71C680.2 70.6 680.8 70.3 681.8 70.4C682.7 70.4 683.4 70 683.3 69.4C683.2 68.7 683.8 68.3 684.8 68.4C685.7 68.4 686.4 68 686.3 67.4C686.2 66.7 686.8 66.3 687.8 66.4C688.7 66.4 689.4 65.9 689.2 65.2C689.1 64.4 689.4 64.1 689.9 64.5C691.3 65.3 703.3 57.6 702.3 56.5C701.8 56.1 702 56 702.7 56.4C704.2 57.2 710.3 53.6 709.2 52.5C708.8 52 709.1 52 709.7 52.4C711.2 53.2 717.1 50 716.4 48.8C716.1 48.4 716.7 48.3 717.6 48.7C718.8 49.1 719.1 49 718.6 48.2C718.1 47.4 718.4 47.2 719.4 47.6C720.3 47.9 721 47.7 721 47C721 46.4 721.5 46.2 722 46.5C722.6 46.8 723 46.7 723 46.1C723 45.5 723.7 45.4 724.7 45.7C725.9 46.2 726.1 46 725.5 45C724.9 44 725.1 43.8 726.3 44.3C727.3 44.6 728 44.5 728 43.9C728 43.3 728.5 43.2 729 43.5C729.6 43.8 730 43.7 730 43.1C730 42.5 730.6 42.3 731.4 42.6C732.1 42.9 733.4 42.5 734.1 41.7C734.9 41 736.1 40.5 736.9 40.8C737.8 41.1 738 40.8 737.5 40C736.9 39 737.1 38.8 738.3 39.3C739.3 39.6 740 39.5 740 39C740 38.5 740.7 38.3 741.5 38.6C742.3 39 743 38.7 743 38C743 37.4 743.5 37.2 744 37.5C744.6 37.8 745 37.6 745 37C745 36.3 745.7 36 746.5 36.4C747.3 36.7 748 36.5 748 36C748 35.5 748.7 35.3 749.5 35.6C750.3 36 751 35.7 751 35C751 34.4 751.5 34.2 752 34.5C752.6 34.8 753 34.6 753 34C753 33.3 753.7 33 754.5 33.4C755.3 33.7 756 33.5 756 32.9C756 32.3 756.7 32 757.5 32.4C758.3 32.7 759 32.5 759 32C759 31.5 759.7 31.3 760.5 31.6C761.3 32 762 31.7 762 31C762 30.3 762.7 30 763.5 30.4C764.3 30.7 765 30.5 765 29.9C765 29.3 765.7 29 766.5 29.4C767.3 29.7 768 29.5 768 28.9C768 28.3 768.7 28 769.5 28.4C770.3 28.7 771 28.5 771 27.9C771 27.3 771.7 27 772.5 27.4C773.3 27.7 774 27.5 774 26.9C774 26.3 774.7 26 775.5 26.3C776.3 26.7 777.2 26.5 777.5 25.9C777.9 25.4 778.6 25.3 779.2 25.6C779.8 26 780.6 25.7 781 25.1C781.4 24.4 783.1 23.8 784.8 23.8C786.6 23.7 788 23.3 788 22.7C788 22.2 788.6 22 789.4 22.3C790.2 22.6 791 22.5 791.2 22.1C792.1 19.8 850.2 8.09998 866.8 6.79998C868.5 6.69998 870 6.09998 870 5.59998C870 5.09998 870.3 4.89998 870.6 5.29998C871.7 6.29998 874.2 3.09998 873.6 1.49998C873 -0.200023 871.1 -0.200023 856 1.09998ZM447.5 434.2C447.6 472.7 450 496.3 457.5 529.7C482.5 641.5 554.8 742.4 653.5 803.5C659.6 807.2 665.1 810.8 665.8 811.5C666.9 812.5 664.9 814.6 655.8 822.6C649.6 828 638.8 838.2 631.9 845.2L619.3 858L604.9 845.2C550.7 796.8 506.6 738.5 480 680C459.7 635.4 447.6 591.2 441.8 540C440.5 528.1 440.1 471.5 441.3 453C442.2 439.5 446.6 404 447.4 404C447.5 404 447.5 417.6 447.5 434.2ZM321.1 517.6C320.5 521.4 319.5 535.3 318.9 548.6C315.4 615.8 326.3 689.2 350 758.4C373.3 826.7 408.1 889.1 452.4 942.5C474 968.4 507.6 1000.7 529.4 1016.6L532.2 1018.7L530.1 1027.9C525.1 1049.2 521.7 1072 520.4 1093.3C519.9 1102.1 519.4 1105 518.5 1104.8C516 1104.2 491.8 1082.7 477.9 1068.7C401.2 991.4 347.2 884.7 323.6 763.5C312.8 708 309 658.4 311.3 602C312.7 567.1 314.2 551.1 318.6 525.2C319.9 517.3 321 510.6 321 510.3C321 509.9 321.2 509.9 321.5 510.2C321.8 510.5 321.6 513.8 321.1 517.6Z" fill="#9D001B"/>
<path d="M50 1616.4C30.5 1621.1 15.2 1632.8 7.10001 1649.4C1.90001 1660.1 0.500011 1666.4 0.600011 1678.5C0.700011 1698.1 9.20001 1715.3 24.2 1726.7C39.3 1738.1 59.8 1742.8 76 1738.6C79 1737.8 81.8 1737.4 82.2 1737.6C82.7 1737.9 83 1737.6 83 1737C83 1736.3 83.7 1736 84.5 1736.4C85.3 1736.7 86 1736.5 86 1735.9C86 1735.3 86.5 1735.2 87 1735.5C87.6 1735.8 88 1735.6 88 1735C88 1734.4 88.5 1734.2 89.2 1734.6C89.8 1735 90.9 1734.5 91.7 1733.5C92.4 1732.4 93 1732 93 1732.4C93 1732.8 94.3 1732.3 95.9 1731.4C97.6 1730.4 98.6 1729.2 98.3 1728.7C98 1728.1 98.2 1728 98.8 1728.4C100 1729.1 108.4 1722.1 107.5 1721.2C107.3 1720.9 107.5 1720.1 108.1 1719.4C108.9 1718.4 106.7 1715.6 99.1 1707.8L89.1 1697.5L85.3 1701.2C80.9 1705.5 72.4 1709.7 66.3 1710.6C57.6 1711.9 46.4 1707.5 39.7 1700.1C33.5 1693.2 31.6 1688.6 31.5 1679.2C31.4 1674.6 31.7 1671 32.3 1671C32.8 1671 33 1670.1 32.7 1669C32.4 1667.9 32.6 1667.2 33.1 1667.6C33.9 1668.1 34.4 1666.4 34.3 1663.3C34.3 1662.6 34.6 1662.2 35 1662.3C36.1 1662.6 42.9 1653.3 42.2 1652.4C41.8 1652 42.1 1652 42.8 1652.4C44.2 1653.3 49.3 1649.6 48.2 1648.5C47.8 1648 48 1648 48.7 1648.3C50.3 1649.3 53.1 1648 52.3 1646.7C51.9 1646.1 52.3 1645.9 53.2 1646.3C54.1 1646.6 55.2 1646.4 55.8 1645.8C57.4 1644.2 70.3 1644.7 74.6 1646.5C76.8 1647.4 80.6 1649.9 83.1 1652C85.6 1654.1 88.4 1655.8 89.3 1655.6C91.5 1655.3 95.1 1651.9 94.4 1650.8C94.1 1650.4 94.4 1650.1 95.2 1650.2C95.9 1650.4 96.4 1649.9 96.2 1649.2C96.1 1648.6 96.6 1648.1 97.2 1648.2C97.9 1648.4 98.4 1647.9 98.2 1647.2C98.1 1646.4 98.3 1646.1 98.8 1646.4C99.8 1647 107.4 1639.3 108.3 1636.9C109.6 1633.1 94.9 1622.6 82.3 1618.4C73 1615.2 58.7 1614.3 50 1616.4Z" fill="#9D001B"/>
<path d="M690 1616.5C676.5 1619.5 667.3 1624.8 657.8 1634.8C646.4 1646.9 641 1660.6 640.9 1677.4C640.8 1701.4 653 1721.7 674.1 1733C686 1739.3 704.1 1741.7 717 1738.7C720.1 1737.9 723.1 1737.5 723.8 1737.8C724.5 1738 725 1737.7 725 1737C725 1736.4 725.5 1736.2 726 1736.5C726.6 1736.8 727 1736.6 727 1736C727 1735.4 727.4 1735.2 728 1735.5C730 1736.7 741.6 1729.4 748.5 1722.5C755.7 1715.4 763.7 1702.2 762.5 1699.3C762.2 1698.4 762.5 1698.2 763.2 1698.6C763.9 1699.1 764.1 1698.6 763.8 1697.2C763.4 1696 763.6 1695 764.2 1695C764.8 1695 764.9 1693.9 764.6 1692.4C764.2 1690.9 764.3 1690.1 764.9 1690.4C766.5 1691.4 765.3 1667.2 763.5 1661C758.1 1643.4 746.1 1629 730.5 1621.5C718.1 1615.5 702.7 1613.6 690 1616.5ZM717.7 1648C729.1 1653.6 735.4 1664.1 735.4 1677.5C735.4 1687.6 732 1695.9 725.3 1702.1C718.3 1708.5 713 1710.5 703 1710.5C695.7 1710.5 693.7 1710.1 688.8 1707.7C677.3 1702.1 670.5 1690.5 671.2 1677.5C671.3 1673.6 671.7 1670.3 672 1670C672.3 1669.7 673.6 1667.1 674.9 1664.2C676.3 1661.2 679.6 1656.8 682.6 1654C685.4 1651.3 687.5 1648.8 687.1 1648.4C686.8 1648 687 1648 687.7 1648.3C689.3 1649.3 692.1 1648 691.3 1646.7C690.9 1646.1 691.3 1645.9 692.3 1646.3C693.3 1646.6 694 1646.5 694 1646C694 1644.7 698.7 1644.1 705.5 1644.6C709.5 1644.9 713.6 1646 717.7 1648Z" fill="#9D001B"/>
<path d="M404.8 1620.7C404.6 1622.8 404.6 1649.8 404.8 1680.7L405 1737H419.5H434V1709.5C434 1692.3 434.4 1682 435 1682C435.5 1682 444.6 1689.8 455.2 1699.2C465.7 1708.7 480 1721.6 486.9 1727.8L499.5 1739L500.2 1734.3C501 1728.1 501.2 1630.2 500.4 1623.2L499.7 1618H484.9H470V1645.5C470 1660.6 469.7 1673 469.4 1673C468.8 1673 461.4 1666.6 426.2 1635.1C415 1625.2 405.7 1617 405.5 1617C405.3 1617 405 1618.7 404.8 1620.7Z" fill="#9D001B"/>
<path d="M1110 1677V1737.1L1124.8 1736.8L1139.5 1736.5V1704.8V1673.1L1143 1675.3C1144.9 1676.5 1150.9 1680.2 1156.2 1683.7C1164.8 1689.2 1166.2 1689.8 1168.9 1689C1172.8 1687.9 1176.2 1685.5 1175.2 1684.6C1174.8 1684.2 1175 1683.9 1175.5 1684C1177.7 1684.5 1179.1 1683.9 1178.4 1682.8C1178 1682.1 1178.1 1682 1178.9 1682.4C1180.1 1683.2 1184.9 1680.2 1189.3 1675.8C1190.9 1674.2 1192.6 1673.2 1193.1 1673.6C1193.6 1673.9 1194 1687.6 1194 1705.6V1737H1208.5H1223V1677C1223 1644 1222.7 1617 1222.4 1617C1222 1617 1218.8 1619 1215.1 1621.4C1184.9 1641.3 1166.7 1653 1166 1653C1165.5 1653 1152.9 1644.9 1138 1635C1123.2 1625.1 1110.8 1617 1110.5 1617C1110.2 1617 1110 1644 1110 1677Z" fill="#9D001B"/>
<path d="M121 1677.5V1737L168.3 1736.8L215.5 1736.5L215.4 1732C215.4 1729.5 215.3 1723.1 215.2 1717.7L215 1708H182.5H149.9L150.2 1700.2L150.5 1692.5L175.5 1692L200.5 1691.5L200.8 1681.5C201 1676 200.8 1669.6 200.5 1667.2L199.9 1663H174.9H150V1655V1647H182.5C200.4 1647 215 1646.7 215.1 1646.2C215.2 1645 215.2 1623.7 215.1 1620.7L215 1618H168H121V1677.5Z" fill="#9D001B"/>
<path d="M232 1677.5V1737H247C261.9 1737 262 1737 262.1 1734.7C262.1 1733.5 262.2 1724.6 262.2 1715C262.2 1705.4 262.5 1698.1 262.7 1698.8C263.1 1699.7 263.5 1699.8 264.5 1699C265.3 1698.4 268.6 1698 272.2 1698.2L278.5 1698.5L289.4 1717.7L300.3 1737H318.6C328.7 1737 337 1736.7 337 1736.4C337 1736.1 331.8 1727.1 325.4 1716.4C313.4 1696.3 311.6 1692.5 314.2 1693.5C315.8 1694.1 323.6 1688.7 327.6 1684.2C331 1680.4 335.3 1671.3 334.6 1669.5C334.3 1668.7 334.5 1668 334.9 1668C335.4 1668 335.7 1663.8 335.5 1658.7C335.2 1649 333.4 1642.2 329.5 1636C325.9 1630.4 317.5 1623.3 311.2 1620.8C305.7 1618.6 304.4 1618.5 268.8 1618.2L232 1617.9V1677.5ZM265 1648C265.8 1647.4 273.5 1647 282 1647C298.2 1647 300.2 1647.5 303.7 1652C305.5 1654.2 305.3 1661.2 303.4 1663.9C300.4 1668.2 296.3 1669 278.5 1669H262V1657.7C262 1651.6 262.4 1647 262.8 1647.7C263.3 1648.5 264.1 1648.6 265 1648Z" fill="#9D001B"/>
<path d="M353 1677.5V1737H368.5H384V1677.5V1618H368.5H353V1677.5Z" fill="#9D001B"/>
<path d="M521 1677.4V1737H550.3C571.8 1737 581.1 1736.6 585.5 1735.6C588.8 1734.8 591.8 1734.4 592.2 1734.6C592.7 1734.9 593 1734.7 593 1734.1C593 1733.5 593.7 1733.3 594.5 1733.6C595.3 1734 596 1733.7 596 1733C596 1732.4 596.5 1732.2 597 1732.5C597.6 1732.8 598 1732.6 598 1732C598 1731.4 598.5 1731.2 599 1731.5C599.6 1731.8 600 1731.7 600 1731.2C600 1730.7 600.6 1730.3 601.4 1730.3C603.7 1730.3 610.1 1725.9 609.4 1724.8C608.9 1724.1 609.2 1724 610 1724.5C613.1 1726.4 630.2 1703.5 628.6 1699.4C628.2 1698.4 628.4 1698.2 629.2 1698.6C629.9 1699.1 630.1 1698.6 629.8 1697.2C629.4 1695.8 629.6 1695.2 630.3 1695.7C630.9 1696.1 631.1 1695.5 630.8 1694.2C630.4 1693 630.7 1692 631.2 1692C631.8 1692 632 1690.8 631.6 1688.9C631.3 1687.1 631.5 1685.2 632 1684.5C632.7 1683.6 632.7 1680.3 632 1673.9C628.8 1646.9 615.6 1630.1 590.3 1620.8C584.9 1618.8 582.1 1618.6 552.8 1618.2L521 1617.8V1677.4ZM584.8 1649.8C596.3 1655.9 601.4 1664.5 601.5 1677.5C601.5 1687.3 598.7 1693.4 591.2 1700.1C584 1706.6 579 1708 563.7 1708H550.9L551.2 1678.7C551.4 1662.7 551.9 1648.9 552.4 1648.2C553 1647.1 556.2 1646.9 566.9 1647.2C578.7 1647.5 581.1 1647.9 584.8 1649.8Z" fill="#9D001B"/>
<path d="M822 1677.4V1737H837H852L852.2 1719.2L852.5 1701.5L874 1700.8C900.8 1700 899.2 1700.1 898.4 1698.8C897.9 1698.1 898.3 1697.9 899.3 1698.3C900.3 1698.6 901 1698.5 901 1697.9C901 1697.3 901.5 1697.2 902 1697.5C902.6 1697.8 903 1697.6 903 1697.1C903 1696.5 903.3 1696.1 903.8 1696.1C905.8 1696.4 907 1695.9 906.4 1694.8C906 1694.1 906.1 1694 906.8 1694.4C909.3 1695.9 922 1681.4 920.4 1678.9C920 1678.2 920.1 1677.9 920.8 1678.4C922.1 1679.2 923.4 1675.5 922.4 1673.9C921.9 1673.1 922.1 1673 923 1673.5C924 1674.1 924.2 1673.8 923.8 1672.2C923.4 1671 923.5 1670 923.9 1670C924.3 1670 924.7 1667.4 924.8 1664.2C925.3 1645.2 916.4 1629.7 900.4 1621.9L893.5 1618.5L857.8 1618.2L822 1617.9V1677.4ZM891.6 1651.2C894.3 1654.2 895 1655.8 895 1659C895 1661.3 894.3 1664.4 893.5 1666C890.8 1671.3 887.9 1672 869 1672H852V1659.4V1646.9L870.1 1647.2L888.2 1647.5L891.6 1651.2Z" fill="#9D001B"/>
<path d="M937 1677.5V1737H951.9C964.6 1737 966.9 1736.8 967.4 1735.4C967.7 1734.5 968 1726.3 968 1717C968 1703.8 968.3 1700 969.4 1699.1C970.3 1698.4 973.3 1698 977.1 1698.2L983.4 1698.5L994.3 1717.7L1005.2 1737H1023.6C1033.7 1737 1042 1736.8 1042 1736.5C1042 1736.3 1036.4 1726.6 1029.5 1715.1C1022.6 1703.5 1017 1693.8 1017 1693.5C1017 1693.1 1018 1693.2 1019.1 1693.5C1020.4 1694 1021 1693.8 1020.6 1693.2C1020.3 1692.7 1020.8 1692.3 1021.8 1692.4C1022.7 1692.4 1023.4 1692 1023.3 1691.4C1023.2 1690.7 1023.8 1690.3 1024.8 1690.4C1025.7 1690.4 1026.4 1689.9 1026.2 1689.2C1026.1 1688.4 1026.4 1688.1 1026.9 1688.4C1028.3 1689.3 1036.3 1680.1 1035.6 1678.4C1035.3 1677.6 1035.4 1677.1 1035.9 1677.4C1037.2 1678.2 1040.1 1670.4 1039.3 1668.4C1038.9 1667.3 1039.1 1666.9 1039.7 1667.3C1041.3 1668.3 1040.4 1650.2 1038.5 1645C1034.6 1634 1026.2 1624.8 1016.2 1620.8C1010.7 1618.6 1009.4 1618.5 973.8 1618.2L937 1617.9V1677.5ZM1004.3 1648.1C1008.1 1650 1010 1653.2 1010 1657.8C1010 1661.5 1009.4 1662.8 1006.6 1665.6L1003.2 1669H984.9H966.7L967.4 1658.8C967.8 1652.5 968.5 1648.3 969.3 1647.8C971.2 1646.6 1001.8 1646.8 1004.3 1648.1Z" fill="#9D001B"/>
<path d="M1058 1677.5V1737H1073.4C1086.5 1737 1088.9 1736.8 1089.4 1735.4C1090.2 1733.3 1090.2 1625.1 1089.4 1621.1L1088.8 1618H1073.4H1058V1677.5Z" fill="#9D001B"/>
<path d="M1255.5 1676.2C1244 1708.3 1234.4 1735.1 1234.2 1735.7C1233.9 1736.7 1237.5 1737 1249.9 1737C1261.5 1737 1266 1736.7 1266 1735.8C1266 1735.2 1266.3 1735 1266.7 1735.4C1267.7 1736.3 1271.2 1726.1 1270.3 1724.7C1270 1724.2 1270.1 1723.9 1270.6 1724.2C1271.1 1724.5 1272.2 1723.2 1273.2 1721.3C1274.5 1718.4 1274.6 1717.9 1273.4 1718.4C1272.5 1718.7 1272.2 1718.5 1272.5 1718C1272.9 1717.4 1280.9 1717 1292.8 1717H1312.6L1316.1 1726.7L1319.6 1736.5L1335.8 1736.8C1344.7 1736.9 1352 1736.9 1352 1736.6C1352 1736.2 1345 1717.4 1318.9 1648.2L1307.5 1618H1292H1276.4L1255.5 1676.2ZM1296.8 1674.7C1299.1 1681.2 1301 1686.8 1301 1687.2C1301 1687.7 1296.9 1688 1291.9 1688C1283 1688 1282.9 1688 1283.6 1685.8C1284 1684.5 1285 1683 1285.8 1682.4C1286.7 1681.7 1287.1 1680.6 1286.7 1679.6C1286.2 1678.5 1286.4 1678.1 1287.2 1678.6C1287.9 1679.1 1288.1 1678.6 1287.8 1677.2C1287.4 1675.8 1287.6 1675.2 1288.3 1675.7C1288.9 1676.1 1289.1 1675.5 1288.8 1674.2C1288.4 1673 1288.6 1672.2 1289 1672.5C1289.5 1672.8 1289.8 1671.8 1289.8 1670.3C1289.7 1667 1290.8 1663 1291.9 1663C1292.3 1663 1294.5 1668.3 1296.8 1674.7Z" fill="#9D001B"/>
<path d="M151.1 1694.6C151.1 1695.7 151.4 1696 151.7 1695.2C152 1694.5 151.9 1693.6 151.6 1693.3C151.3 1692.9 151 1693.5 151.1 1694.6Z" fill="#9D001B"/>
<path d="M540.2 1792.7C531.8 1807.6 505 1856.8 505 1857.5C505 1857.8 507.8 1858 511.1 1857.8L517.3 1857.5L521 1850.8C523.5 1846.4 524.4 1843.9 523.7 1843.6C523 1843.4 529.1 1843.1 537.2 1843.1C553.8 1843 552.3 1842.2 553.5 1852.3L554.1 1858H559.4H564.7L562.4 1842.7C561.1 1834.4 558.6 1817.7 556.9 1805.7L553.7 1784H549.4H545.2L540.2 1792.7ZM549 1816.4C550.2 1825.1 550.9 1832.9 550.6 1833.6C550.2 1834.7 547.7 1835 540.3 1835C528.5 1835 526.6 1834.2 530.2 1830.8C532.9 1828.3 542.2 1810.5 543.4 1805.5C544.1 1802.7 545.9 1799.6 546.6 1800.2C546.7 1800.4 547.8 1807.7 549 1816.4Z" fill="#9D001B"/>
<path d="M607.6 1818.5C603.8 1837.6 600.5 1854.3 600.2 1855.6C599.8 1857.9 600.1 1858 604.5 1858C609.8 1858 612.5 1856.1 611.5 1853C611.1 1851.8 611.3 1851 612 1851C612.8 1851 613 1850.1 612.6 1848.4C612.1 1846.5 612.3 1846 613.1 1846.6C614 1847.1 614.1 1846.5 613.7 1844.2C613.3 1842.3 613.5 1841 614 1841C614.6 1841 614.8 1839.9 614.4 1838.4C613.9 1836.3 614 1835.9 615 1836.5C616 1837.1 616.2 1836.6 615.7 1834.1C615.3 1832.3 615.4 1831.1 615.8 1831.4C616.2 1831.6 617.1 1830.7 617.7 1829.3C618.7 1827.2 618.7 1826.9 617.4 1827.4C616.5 1827.7 616.2 1827.5 616.5 1827C616.8 1826.4 620.2 1826 624 1826H630.8L633 1833.2C634.2 1837.2 636.4 1844.4 637.8 1849.2L640.5 1858H646.1H651.8L646.9 1842.8C642.7 1829.7 642.2 1827.5 643.5 1826.7C644.4 1826.3 644.7 1825.4 644.4 1824.8C644 1824.2 644.1 1824 644.8 1824.3C646.1 1825.2 649.2 1824.1 648.5 1823C648.2 1822.6 648.8 1822.3 649.8 1822.4C650.7 1822.4 651.4 1821.9 651.2 1821.2C651.1 1820.6 651.5 1820.1 652.1 1820.2C654 1820.7 659.3 1813.3 659.4 1810C659.5 1808.4 659.8 1807 660.3 1807C661.3 1807 660.2 1799.4 658.3 1794.2C657.4 1791.6 655.4 1788.9 653.2 1787.2C649.7 1784.5 649.5 1784.5 632.1 1784.2L614.5 1783.8L607.6 1818.5ZM646.6 1795.3C651.7 1799.7 649.7 1810.2 642.9 1815.1C640.2 1817 638.1 1817.4 628.8 1817.8C617 1818.3 616.6 1818.1 619.5 1812.6C620.4 1811 620.8 1808.9 620.5 1807.8C620.1 1806.8 620.4 1806 621 1806C621.8 1806 622 1805.1 621.6 1803.5C621.2 1801.9 621.4 1801 622.1 1801C622.7 1801 623 1800.1 622.7 1799C622.4 1797.9 622.5 1797 623 1797C623.4 1797 624 1796.1 624.3 1795C624.8 1793.2 625.7 1793 634.4 1793C642.9 1793 644.2 1793.2 646.6 1795.3Z" fill="#9D001B"/>
<path d="M733.5 1785.2C732 1789.6 722 1843.8 722 1847.6C722 1851.3 722.5 1852.7 725 1855.1C727.7 1857.9 728.4 1858.1 734.2 1857.8L740.4 1857.5L740.6 1853.7C740.7 1850.1 740.6 1850 737 1850C735 1850 732.9 1849.5 732.2 1848.8C730.7 1847.3 730.6 1844 732.1 1844C732.8 1844 733 1843 732.6 1841.4C732.1 1839.5 732.3 1839 733.1 1839.6C734 1840.1 734.1 1839.5 733.7 1837.1C733.2 1834.8 733.4 1834.1 734.2 1834.6C735 1835.1 735.1 1834.4 734.7 1832.1C734.2 1829.9 734.4 1829.1 735.1 1829.6C735.9 1830 736 1829.2 735.5 1827C735 1824.6 735.1 1823.9 736 1824.5C736.9 1825.1 737 1824.4 736.5 1822C736 1819.5 736.1 1818.9 737 1819.5C738 1820.1 738.2 1819.6 737.7 1817.2C737.3 1815.3 737.5 1814 738 1814C738.6 1814 738.8 1812.9 738.4 1811.4C737.9 1809.3 738 1808.9 739 1809.5C740 1810.1 740.2 1809.6 739.7 1807.2C739.3 1805.2 739.5 1804 740.1 1804C740.7 1804 741 1803.1 740.7 1802C740.4 1800.9 740.7 1800 741.2 1800C741.8 1800 742 1798.8 741.6 1797C741.2 1794.8 741.4 1794.1 742.2 1794.6C743 1795.1 743.1 1794.4 742.7 1792.1C742.2 1789.8 742.4 1789.1 743.2 1789.6C744 1790.1 744.1 1789.8 743.7 1788.6C743.3 1787.6 743 1786.2 743 1785.4C743 1783.6 734.1 1783.4 733.5 1785.2Z" fill="#9D001B"/>
<path d="M764.6 1787.1C763.5 1792.8 763.6 1793 769 1793C772.6 1793 774 1792.6 774 1791.6C774 1790.8 774.4 1790 774.9 1789.8C775.4 1789.6 775.6 1788.3 775.3 1786.7C774.8 1784.2 774.4 1784 770 1784C765.5 1784 765.2 1784.2 764.6 1787.1Z" fill="#9D001B"/>
<path d="M845.5 1785.2C845.3 1785.9 842.1 1801.6 838.5 1820C834.8 1838.4 831.6 1854.5 831.3 1855.8C830.8 1857.9 831.1 1858 835.9 1858C840.7 1858 841 1857.8 841 1855.5C841 1852.8 842.4 1852.1 843.3 1854.3C844.3 1857 850.8 1859.1 857 1858.8C860.3 1858.7 863 1858.2 863 1857.7C863 1857.3 863.4 1857.2 864 1857.5C866.5 1859 876.2 1847.7 874.6 1845.1C874.3 1844.6 874.5 1844 875.2 1843.8C875.9 1843.5 876.4 1841.8 876.3 1839.7C876.2 1837.3 876.6 1836.2 877.3 1836.7C878 1837.1 878.1 1836.3 877.7 1834.2C877.3 1832.4 877.4 1831 877.8 1831C879 1831 879.1 1819 878 1814.8C877.4 1812.7 875.5 1809.9 873.5 1808.1C870.4 1805.4 869.2 1805 864.4 1805C860.9 1805 857.5 1805.7 855 1807L851 1809V1806.6C851 1805.2 851.4 1803.9 851.9 1803.6C852.4 1803.3 852.6 1802 852.2 1800.8C851.8 1799.3 852 1798.9 852.9 1799.5C853.9 1800.1 854.1 1799.5 853.5 1797.1C853.1 1795 853.2 1794 854 1794C854.8 1794 855 1793.1 854.6 1791.4C854.1 1789.5 854.2 1789 855.1 1789.6C856 1790.1 856.1 1789.8 855.7 1788.6C855.3 1787.6 855 1786.2 855 1785.4C855 1783.6 846.1 1783.4 845.5 1785.2ZM864.3 1813.9C867.7 1815.2 869.4 1820 868.6 1825.9C866.7 1839.9 862.6 1848.2 856.7 1849.8C852.9 1850.8 848 1849.7 846.3 1847.4C845 1845.6 845.1 1836.3 846.4 1834.1C846.8 1833.5 846.9 1832.3 846.6 1831.5C846.3 1830.7 846.6 1830 847.1 1830C847.7 1830 848 1829.1 847.7 1828C847.4 1826.9 847.5 1826 848 1826C848.4 1826 849.3 1824.7 850 1823.1C850.6 1821.5 852.2 1819.2 853.5 1818C854.9 1816.7 855.7 1815.3 855.3 1814.7C855 1814.1 855.2 1814 855.8 1814.4C856.4 1814.7 857.1 1814.6 857.5 1814C858.3 1812.8 861.1 1812.7 864.3 1813.9Z" fill="#9D001B"/>
<path d="M901 1784.3C901 1784.5 898.3 1798.1 895 1814.5C891.7 1830.9 889 1846.1 889 1848.1C889 1850.6 889.8 1852.8 891.4 1854.6C893.4 1857 894.6 1857.4 900.2 1857.8L906.7 1858.2L907.4 1855C908.3 1850.1 908.3 1850.1 903.8 1849.8L899.5 1849.5L899.4 1845.3C899.4 1842.9 899.7 1841 900.3 1841C900.8 1841 900.9 1839.9 900.6 1838.5C900.2 1836.9 900.4 1836 901.1 1836C901.8 1836 902 1835.1 901.6 1833.5C901.2 1831.9 901.4 1831 902.1 1831C902.8 1831 903 1830.1 902.6 1828.5C902.2 1826.9 902.4 1826 903.1 1826C903.8 1826 904 1825.1 903.6 1823.5C903.2 1821.9 903.4 1821 904.1 1821C904.8 1821 905 1820.1 904.6 1818.5C904.2 1816.9 904.4 1816 905.1 1816C905.8 1816 906 1815.1 905.6 1813.5C905.2 1811.9 905.4 1811 906.1 1811C906.8 1811 907 1810.1 906.6 1808.5C906.2 1806.9 906.4 1806 907.1 1806C907.8 1806 908 1805.1 907.6 1803.5C907.2 1801.9 907.4 1801 908.1 1801C908.8 1801 909 1800.1 908.6 1798.5C908.2 1796.9 908.4 1796 909.1 1796C909.8 1796 910 1795.1 909.6 1793.5C909.2 1792.1 909.4 1791 909.9 1791C910.4 1791 910.8 1789.4 910.7 1787.5C910.5 1784 910.5 1784 905.8 1784C903.1 1784 901 1784.1 901 1784.3Z" fill="#9D001B"/>
<path d="M1011.6 1785.2C1011.3 1785.9 1008.2 1801.6 1004.5 1820C1000.8 1838.4 997.6 1854.5 997.3 1855.8C996.8 1857.8 997.1 1858 1001.6 1858C1007.3 1858 1009.3 1857 1008.4 1854.7C1008 1853.7 1008.3 1853 1009 1853C1009.8 1853 1010.1 1852.1 1009.8 1850.5C1009.5 1849.1 1009.7 1848 1010.2 1848C1010.8 1848 1010.9 1846.9 1010.6 1845.5C1010.2 1843.9 1010.4 1843 1011.1 1843C1011.8 1843 1012 1842 1011.8 1840.5C1011.5 1839.1 1011.7 1838 1012.3 1838C1012.8 1838 1013 1837 1012.7 1835.9C1012.4 1834.7 1012.7 1833.1 1013.6 1832.3C1015.2 1830.7 1015.5 1828.6 1014 1829.5C1013.5 1829.8 1013 1829.6 1013 1829.1C1013 1828.4 1017.2 1827.9 1024.5 1827.8C1039.7 1827.6 1039.4 1827.6 1040.1 1826.6C1040.5 1826.1 1041.9 1825.7 1043.3 1825.7C1048.6 1825.7 1058 1814.7 1056.3 1810.4C1055.9 1809.3 1056.1 1808.9 1056.7 1809.3C1057.4 1809.8 1057.6 1807.8 1057.3 1803.2C1056.6 1794.2 1053.8 1789.2 1048 1786.2C1044 1784.2 1042.2 1784 1027.8 1784C1016 1784 1011.8 1784.3 1011.6 1785.2ZM1044.2 1796C1047 1798.8 1047.2 1799.5 1046.8 1804.1C1046.3 1809.4 1044.2 1813 1039.6 1816.4C1037.3 1818.2 1035.1 1818.6 1025.9 1818.8L1014.9 1819.2L1015.6 1816.3C1016 1814.8 1016.7 1813.2 1017.3 1812.9C1017.8 1812.5 1017.9 1811.3 1017.5 1810.1C1017.1 1808.8 1017.3 1808 1018 1808C1018.8 1808 1019 1807.1 1018.6 1805.5C1018.2 1803.9 1018.4 1803 1019.1 1803C1019.8 1803 1020 1802 1019.8 1800.5C1019.5 1799.1 1019.6 1798 1020 1798C1020.4 1798 1021.2 1796.9 1021.8 1795.5C1022.9 1793.1 1023.3 1793 1032.1 1793C1040.9 1793 1041.3 1793.1 1044.2 1796ZM1051 1820.4C1051 1820.6 1050.2 1821.4 1049.3 1822.1C1047.7 1823.4 1047.6 1823.3 1048.9 1821.7C1050.2 1820.1 1051 1819.6 1051 1820.4Z" fill="#9D001B"/>
<path d="M1170 1795.7C1167.9 1806.3 1168 1806 1165 1806C1162.2 1806 1161 1807.5 1161 1811.1C1161 1812.3 1161.7 1813 1162.9 1813C1164 1813 1165.2 1813.4 1165.5 1814C1165.8 1814.5 1164.7 1821.9 1163 1830.4C1159.6 1848.2 1159.5 1849.1 1161.5 1852.9C1163.1 1856.2 1166.8 1857.9 1172.7 1858.2C1177.7 1858.4 1177.9 1858.3 1178.7 1853.6C1179.3 1850 1179.2 1850 1175.8 1850C1173.9 1850 1171.9 1849.5 1171.2 1848.8C1169.7 1847.3 1169.6 1843 1171.1 1843C1171.8 1843 1172 1842 1171.8 1840.5C1171.5 1839.1 1171.7 1838 1172.2 1838C1172.8 1838 1172.9 1836.9 1172.6 1835.5C1172.2 1833.9 1172.4 1833 1173.1 1833C1173.8 1833 1174 1831.9 1173.6 1830C1173.2 1827.8 1173.4 1827.1 1174.2 1827.6C1174.9 1828.1 1175.1 1827.5 1174.6 1825.6C1174.2 1823.9 1174.4 1823 1175.1 1823C1175.8 1823 1176 1821.9 1175.6 1820C1175.3 1818.1 1175.4 1817.1 1176 1817.5C1176.5 1817.8 1177.2 1817 1177.5 1815.7C1178.1 1813.6 1178.7 1813.3 1181.6 1813.5C1185.3 1813.7 1187 1812 1187 1808.1C1187 1806.3 1186.4 1806 1182.5 1806C1178.7 1806 1178 1805.7 1178 1804.1C1178 1803 1178.5 1801.8 1179 1801.5C1179.6 1801.1 1179.8 1800 1179.5 1798.9C1179.1 1797.9 1179.3 1797 1179.8 1797C1180.2 1797 1180.6 1795.4 1180.6 1793.5C1180.5 1790 1180.5 1790 1175.8 1790H1171.1L1170 1795.7Z" fill="#9D001B"/>
<path d="M683.5 1806.9C678.1 1809.4 673.7 1814.3 670.3 1821.5C667.8 1826.9 667.5 1828.6 667.5 1838C667.5 1847.5 667.7 1848.8 669.9 1851.9C673.5 1856.9 679.5 1859.2 688.1 1858.8C692 1858.7 695.4 1858.2 695.6 1857.8C695.9 1857.3 696.6 1857.2 697.1 1857.5C697.6 1857.9 698 1857.7 698 1857.1C698 1856.5 698.7 1856.3 699.5 1856.6C700.3 1857 701.2 1856.5 701.6 1855.6C701.9 1854.7 702.7 1854.3 703.4 1854.7C704 1855 704.2 1855 703.8 1854.5C703.4 1854.1 703.5 1853.1 704.2 1852.3C705.1 1851.2 704.7 1850.3 702.5 1848L699.7 1845.1L696.4 1847.7C692 1851 685.5 1851.8 681.2 1849.6C677.1 1847.5 676 1845.3 676.3 1839.4L676.5 1834.5L691.5 1834.3C699.8 1834.2 707.3 1834.1 708.3 1834C709.3 1834 710 1833.2 710 1832.2C710 1831.2 710.5 1829.9 711 1829.4C712.5 1827.9 710.6 1816.7 708.2 1812.7C704.1 1805.6 692.3 1802.8 683.5 1806.9ZM698.8 1815.2C701.3 1818 702.4 1822.1 701.6 1825.5C701 1828 700.9 1828 689.5 1828C679.2 1828 678 1827.8 678 1826.2C678 1824.3 679.4 1821.8 680.4 1821.9C681.6 1822.1 687 1815.3 686.2 1814.5C685.8 1814 686.1 1814 686.8 1814.4C687.4 1814.8 688 1814.6 688 1814.1C688 1813.5 689.9 1813 692.3 1813C695.5 1813 697.2 1813.6 698.8 1815.2Z" fill="#9D001B"/>
<path d="M756.5 1829.7C753.9 1843.4 751.5 1855.3 751.2 1856.3C750.8 1857.9 751.3 1858.1 756.1 1857.8C760.6 1857.6 761.5 1857.2 761.2 1855.8C761 1854.8 761.4 1854 762.1 1854C762.8 1854 763 1853.1 762.6 1851.5C762.2 1849.9 762.4 1849 763.1 1849C763.8 1849 764 1848.1 763.6 1846.5C763.2 1844.9 763.4 1844 764.1 1844C764.8 1844 765 1843.1 764.6 1841.5C764.2 1839.9 764.4 1839 765.1 1839C765.8 1839 766 1838.1 765.6 1836.5C765.2 1834.9 765.4 1834 766.1 1834C766.8 1834 767 1833.1 766.6 1831.5C766.2 1829.9 766.4 1829 767.1 1829C767.8 1829 768 1828.1 767.6 1826.5C767.2 1825 767.4 1824 768 1824C768.6 1824 768.8 1822.9 768.4 1821.4C767.9 1819.3 768 1818.9 769 1819.5C770 1820.1 770.2 1819.6 769.7 1817.2C769.3 1815.4 769.4 1814 769.9 1814C770.3 1814 770.7 1812 770.8 1809.5V1805H766.1H761.4L756.5 1829.7Z" fill="#9D001B"/>
<path d="M793.5 1806.2C790.1 1807.4 785 1810.8 785 1811.8C785.1 1812.2 786.2 1813.8 787.5 1815.5C789.9 1818.4 789.9 1818.4 792.1 1816.5C793.3 1815.4 794 1815.1 793.6 1815.7C793.1 1816.6 793.4 1816.8 794.4 1816.4C795.3 1816.1 795.7 1815.3 795.3 1814.7C794.9 1814.1 795.3 1813.9 796.3 1814.3C797.3 1814.6 798 1814.5 798 1814C798 1812.4 807.3 1812.9 809.8 1814.6C811.5 1815.8 812 1817.1 812 1820.5C812 1828 812 1828 800.6 1828C792 1828 789.7 1828.4 786 1830.2C780.8 1832.9 778.2 1836.2 777 1841.6C775.3 1848.9 778.6 1855.4 785.5 1858C788.3 1859.1 800 1859.1 800 1858C800 1857.7 801.4 1856.6 803.2 1855.6L806.3 1853.7L805.7 1855.9C805.2 1858 805.4 1858.1 810.3 1857.8C814.7 1857.5 815.5 1857.2 815.2 1855.6C815 1854.4 815.3 1854.1 816 1854.5C816.9 1855.1 817 1854.4 816.5 1852C816 1849.5 816.1 1848.9 817 1849.5C818 1850.1 818.1 1849.6 817.6 1847.6C817.2 1846 817.4 1845 818.1 1845C818.8 1845 818.9 1843.9 818.5 1841.9C818 1839.5 818.1 1838.9 819 1839.5C820 1840.1 820.1 1839.6 819.6 1837.6C819.2 1835.9 819.4 1835 820.1 1835C820.8 1835 821 1834 820.8 1832.5C820.5 1831.1 820.7 1830 821.3 1830C821.8 1830 822 1828.9 821.8 1827.5C821.5 1826.1 821.7 1824.7 822.1 1824.4C823.3 1823.7 822.1 1816.4 820.3 1812.3C818.1 1807.6 812.1 1805 803.4 1805.1C799.6 1805.1 795.2 1805.6 793.5 1806.2ZM809 1836.7C809 1838.3 808.1 1841.3 807.1 1843.6C802.8 1853.1 786 1853.8 786 1844.3C786 1842.9 786.3 1842 786.7 1842.3C787.5 1843.2 791.1 1837.9 790.4 1836.8C790.1 1836.4 790.7 1836.3 791.6 1836.7C792.7 1837.1 793.1 1837 792.6 1836.2C791.8 1834.9 794.5 1834.3 802.8 1834.1C808.9 1834 809 1834 809 1836.7Z" fill="#9D001B"/>
<path d="M935.5 1806.8C925.7 1811.5 919 1824.8 919 1839.5C919.1 1847.4 921.6 1853 926.6 1856.1C929.8 1858 931.8 1858.5 937.5 1858.4C947 1858.3 951 1857.9 950.4 1856.9C950.1 1856.4 950.6 1856.3 951.4 1856.6C952.3 1856.9 954 1856.1 955.6 1854.5C958.2 1851.9 958.2 1851.8 956.4 1849.7C955.3 1848.5 954.1 1847.1 953.5 1846.4C952.8 1845.6 951.6 1845.9 948.8 1847.7C941.3 1852.7 932 1851.6 929.4 1845.4C927.9 1841.7 927.4 1834.6 928.9 1836.8C929.6 1837.9 929.8 1837.9 930.3 1836.6C930.6 1835.8 930.4 1834.9 929.7 1834.6C929 1834.3 935.8 1834.1 944.8 1834.2C964.6 1834.3 964.2 1834.6 963 1822.6C962.2 1814.4 960.7 1811.4 955.7 1807.6C951.7 1804.7 940.9 1804.3 935.5 1806.8ZM949.5 1813.6C951.9 1814.5 954 1819.4 954 1824V1828H941.9C928 1828 927.8 1827.7 935 1819.9C937.1 1817.5 938.7 1815.3 938.4 1814.8C938.1 1814.4 938.7 1814.3 939.6 1814.7C940.8 1815.1 941.1 1815 940.6 1814.2C939.8 1812.9 946.5 1812.5 949.5 1813.6Z" fill="#9D001B"/>
<path d="M1073.5 1806.6C1071.3 1807.4 1068.7 1808.9 1067.6 1809.9C1065.8 1811.8 1065.8 1811.9 1067.9 1814.8C1069.8 1817.5 1070.3 1817.8 1073.2 1817C1074.9 1816.5 1077 1815.4 1078 1814.5C1080.5 1812.2 1088.5 1812.5 1091 1815C1093 1817 1093.6 1821.3 1092.4 1825.6C1091.9 1827.7 1091.1 1827.8 1080 1828.1C1068.5 1828.5 1068.1 1828.6 1064.3 1831.6C1055.1 1839 1054.8 1850.9 1063.7 1856.7C1065.6 1858 1068.5 1858.5 1073.4 1858.6C1079.4 1858.7 1080.7 1858.4 1082.9 1856.4C1086.1 1853.5 1087.3 1853.3 1086.5 1856.1C1085.9 1858 1086.2 1858.1 1091.2 1857.8C1095.6 1857.6 1096.5 1857.2 1096.2 1855.7C1096 1854.8 1096.4 1854 1097.1 1854C1097.8 1854 1098 1853.1 1097.6 1851.5C1097.2 1849.9 1097.4 1849 1098.1 1849C1098.8 1849 1099 1848.1 1098.6 1846.5C1098.2 1844.9 1098.4 1844 1099.1 1844C1099.8 1844 1100 1843.1 1099.6 1841.5C1099.2 1839.9 1099.4 1839 1100.1 1839C1100.8 1839 1101 1838.1 1100.6 1836.5C1100.2 1834.9 1100.4 1834 1101.1 1834C1101.8 1834 1102 1833.1 1101.6 1831.5C1101.2 1829.9 1101.4 1829 1102.1 1829C1102.8 1829 1103 1828.1 1102.7 1826.8C1102.3 1825.6 1102.5 1824.1 1103.1 1823.4C1104.4 1821.8 1102.7 1814.4 1100.2 1811.1C1097.1 1806.8 1092.3 1805 1084.5 1805.1C1080.7 1805.1 1075.7 1805.8 1073.5 1806.6ZM1090 1836.5C1090 1840.4 1087.2 1846.3 1084.3 1848.4C1080.7 1851 1072.7 1851.7 1069.6 1849.6C1067.7 1848.4 1067.2 1847.3 1067.3 1844.6C1067.4 1842.7 1067.8 1841.4 1068.2 1841.6C1069 1842.1 1071.6 1837.9 1071.2 1836.8C1071.1 1836.4 1071.8 1836.4 1072.7 1836.7C1073.9 1837.2 1074.1 1837 1073.5 1836C1073 1835.2 1073.1 1834.9 1073.6 1835.3C1074.2 1835.6 1075.2 1835.5 1076 1834.9C1076.8 1834.4 1080.3 1834 1083.8 1834C1089.7 1834 1090 1834.1 1090 1836.5Z" fill="#9D001B"/>
<path d="M1117.1 1830.7C1114.3 1844.9 1112 1856.9 1112 1857.3C1112 1857.7 1114.4 1858 1117.3 1857.8C1122.1 1857.5 1122.5 1857.3 1122.3 1855.2C1122.1 1853.7 1122.4 1853.1 1123.2 1853.6C1124 1854.1 1124.1 1853.4 1123.7 1851.1C1123.2 1848.8 1123.4 1848.1 1124.2 1848.6C1125 1849.1 1125.1 1848.4 1124.7 1846.1C1124.2 1843.8 1124.4 1843.1 1125.2 1843.6C1126 1844.1 1126.1 1843.4 1125.7 1841.2C1125.3 1839.2 1125.5 1838 1126.1 1838C1126.8 1838 1127 1837 1126.6 1835.4C1126.1 1833.6 1126.3 1833 1127.1 1833.6C1127.9 1834.1 1128.1 1833.5 1127.8 1831.6C1127.5 1830.2 1127.7 1829 1128.3 1829C1128.8 1829 1129 1827.9 1128.8 1826.5C1128.5 1825.2 1128.7 1824.3 1129.1 1824.6C1129.6 1824.9 1130 1824.6 1130 1824.1C1130 1823.5 1131.6 1821.3 1133.5 1819.2C1135.4 1817 1136.6 1814.9 1136.2 1814.5C1135.8 1814 1136.3 1814 1137.3 1814.3C1138.2 1814.7 1139 1814.5 1139 1814C1139 1812.6 1142.1 1812.8 1145.3 1814.4C1146.8 1815.2 1149 1815.7 1150.1 1815.5C1152.5 1815 1155.3 1813 1154.5 1812.2C1154.2 1811.9 1154.5 1811.1 1155.1 1810.4C1155.9 1809.4 1155.4 1808.6 1152.8 1807C1148.2 1804.2 1141.5 1804.4 1135.6 1807.5L1131 1809.9V1807.5C1131 1805.2 1130.6 1805 1126.6 1805H1122.3L1117.1 1830.7Z" fill="#9D001B"/>
<path d="M1196.6 1829.7C1193.9 1843.4 1191.5 1855.3 1191.2 1856.3C1190.8 1857.9 1191.3 1858.1 1196.1 1857.8C1200.6 1857.6 1201.5 1857.2 1201.2 1855.8C1201 1854.8 1201.4 1854 1202 1854C1202.6 1854 1202.8 1853 1202.4 1851.4C1201.9 1849.3 1202 1848.9 1203 1849.5C1204 1850.1 1204.2 1849.6 1203.7 1847.2C1203.3 1845.2 1203.5 1844 1204.1 1844C1204.8 1844 1205 1843 1204.6 1841.4C1204.1 1839.6 1204.3 1839 1205.1 1839.5C1205.9 1840 1206 1839.4 1205.5 1837.1C1205.1 1835 1205.2 1834 1206 1834C1206.8 1834 1207 1833.1 1206.6 1831.4C1206.1 1829.6 1206.3 1829 1207.1 1829.6C1207.9 1830.1 1208.1 1829.5 1207.8 1827.7C1207.5 1826.1 1207.7 1825.3 1208.3 1825.7C1208.9 1826.1 1209.1 1825.5 1208.7 1824.1C1208.4 1822.8 1208.4 1822 1208.7 1822.3C1209.4 1823 1215.6 1815.9 1215.2 1814.7C1215.1 1814.3 1215.5 1814.2 1216.1 1814.6C1216.7 1814.9 1217.6 1814.7 1218 1814C1219.2 1812.1 1225.6 1813.7 1227.5 1816.3C1228.3 1817.5 1229 1819.6 1229 1821.1C1229 1823.2 1224.5 1847.5 1222.5 1855.8C1222 1857.9 1222.3 1858 1227 1858C1230.8 1858 1232 1857.6 1232 1856.5C1232 1855.7 1232.5 1855 1233.1 1855C1233.8 1855 1234 1854 1233.6 1852.5C1233.2 1850.9 1233.4 1850 1234.1 1850C1234.8 1850 1235 1849.1 1234.6 1847.5C1234.2 1845.9 1234.4 1845 1235.1 1845C1235.8 1845 1236 1844.1 1235.6 1842.4C1235.1 1840.6 1235.3 1840 1236.1 1840.5C1236.9 1841 1237 1840.4 1236.5 1838.1C1236.1 1836 1236.2 1835 1237 1835C1237.8 1835 1238 1834.1 1237.6 1832.5C1237.2 1830.9 1237.4 1830 1238.1 1830C1238.8 1830 1239 1829.1 1238.6 1827.5C1238.2 1826 1238.4 1825 1239 1825C1240.4 1825 1239.4 1817 1237.4 1812.3C1234.5 1805 1223.6 1802.7 1214.5 1807.5L1209.8 1810.1L1210.2 1807.5C1210.7 1805.1 1210.5 1805 1206.1 1805H1201.4L1196.6 1829.7Z" fill="#9D001B"/>
<path d="M1266.2 1807.1C1256.9 1811.7 1251.2 1822.4 1250.3 1837C1249.9 1844.6 1250.1 1846 1252.2 1849.9C1255.5 1856 1260.5 1858.5 1269 1858.4C1278.7 1858.3 1282 1857.8 1281.3 1856.7C1280.9 1856.1 1281.3 1855.9 1282.4 1856.3C1283.5 1856.8 1285 1856.1 1286.6 1854.5L1289.1 1852L1286.3 1848.5C1283.9 1845.5 1283.4 1845.3 1282 1846.5C1279.6 1848.7 1273.4 1851 1270 1851C1265.4 1851 1261.4 1848.5 1260.1 1844.9C1258.7 1840.9 1258.7 1836.7 1260 1837.5C1260.9 1838 1261.4 1836.8 1261.1 1834.8C1261.1 1834.5 1268.1 1834.1 1276.6 1834.1C1287.5 1834 1292.6 1833.5 1293.5 1832.7C1294.9 1831.3 1294.6 1820.3 1293 1815.4C1291.8 1811.7 1287.6 1807.5 1283.7 1806.1C1279 1804.3 1270.9 1804.8 1266.2 1807.1ZM1280.3 1813.6C1282.8 1814.4 1285 1819.2 1285 1824V1828H1272.9C1259 1828 1258.8 1827.7 1266 1819.9C1268.1 1817.5 1269.7 1815.3 1269.4 1814.8C1269.1 1814.4 1269.7 1814.3 1270.6 1814.7C1271.7 1815.1 1272.1 1814.9 1271.7 1814.3C1271 1813.2 1277.3 1812.7 1280.3 1813.6Z" fill="#9D001B"/>
<path d="M1313 1805.5C1313 1805.8 1310.8 1817.4 1308 1831.3C1305.3 1845.2 1303 1856.9 1303 1857.3C1303 1857.7 1305.4 1858 1308.3 1857.8C1313 1857.5 1313.5 1857.3 1313.3 1855.2C1313.1 1854 1313.5 1853 1314.1 1853C1314.8 1853 1315 1852 1314.6 1850.5C1314.2 1848.9 1314.4 1848 1315.1 1848C1315.8 1848 1316 1847.1 1315.6 1845.5C1315.2 1843.9 1315.4 1843 1316.1 1843C1316.8 1843 1317 1842.1 1316.6 1840.5C1316.2 1838.9 1316.4 1838 1317.1 1838C1317.8 1838 1318 1837.1 1317.6 1835.5C1317.2 1833.9 1317.4 1833 1318.1 1833C1318.8 1833 1319 1832.1 1318.6 1830.4C1318.1 1828.6 1318.3 1828 1319.1 1828.6C1319.9 1829.1 1320.1 1828.5 1319.8 1826.7C1319.5 1825.2 1319.7 1824.3 1320.1 1824.6C1320.6 1824.9 1321 1824.6 1321 1824.1C1321 1823.5 1322.6 1821.3 1324.5 1819.2C1326.4 1817 1327.6 1814.9 1327.2 1814.5C1326.8 1814 1327.3 1814 1328.2 1814.3C1329.1 1814.6 1330.1 1814.4 1330.3 1813.7C1330.6 1812.8 1331.5 1812.8 1334.1 1813.8C1339.4 1815.9 1341.8 1816 1344.2 1813.9C1345.5 1812.9 1346.1 1812.1 1345.6 1812C1345.1 1812 1345.3 1811.3 1346 1810.5C1347 1809.3 1346.6 1808.7 1343.8 1807C1339.2 1804.2 1332.5 1804.4 1326.6 1807.5L1322 1809.9V1807.5C1322 1805.2 1321.6 1805 1317.5 1805C1315 1805 1313 1805.2 1313 1805.5Z" fill="#9D001B"/>
<path d="M677 1836.1C677 1836.6 677.5 1836.8 678 1836.5C678.6 1836.2 679 1835.7 679 1835.4C679 1835.2 678.6 1835 678 1835C677.5 1835 677 1835.5 677 1836.1Z" fill="#9D001B"/>
</svg>
